<?xml version="1.0" encoding="utf-8"?>
<!-- Generator: Adobe Illustrator 21.0.2, SVG Export Plug-In . SVG Version: 6.00 Build 0)  -->
<!DOCTYPE svg PUBLIC "-//W3C//DTD SVG 1.1//EN" "http://www.w3.org/Graphics/SVG/1.1/DTD/svg11.dtd">
<svg version="1.1" xmlns="http://www.w3.org/2000/svg" xmlns:xlink="http://www.w3.org/1999/xlink" x="0px" y="0px" viewBox="0 0 170 46" style="enable-background:new 0 0 170 46;" xml:space="preserve">
<style type="text/css">
	.red{fill:#EB0029;}
	.black{fill:#000000;}
</style>
<g id="logotype">
	<g id="logo">
		<path class="red" style="fill:#EB0029" d="M29.4,16.4l-5.1,10.9L22.1,25l4-7.6l-7.7,3.8l-2.2-2.2l11-4.9c-2.2-1.7-5-2.7-8.1-2.7
			c-7.3,0-13.3,6-13.3,13.3C5.7,32,11.7,38,19,38s13.3-6,13.3-13.3C32.4,21.6,31.3,18.7,29.4,16.4z"/>
	</g>
	<g id="wordmark">
		<path class="black" style="fill:#000000" d="M48.8,34.1L41.9,16H46l3.7,10.5c0.6,1.8,1,3.6,1.1,4.7h0.1c0.1-0.8,0.5-2.6,1.1-4.7L55.8,16h4.1L53,34.1
			H48.8z"/>
		<path class="black" style="fill:#000000" d="M83.7,34.1L83,31.5h-0.1c-0.9,1.1-1.7,1.8-2.6,2.2c-0.9,0.4-2,0.6-3.4,0.6c-1.8,0-3.2-0.5-4.2-1.4
			c-1-1-1.5-2.3-1.5-4.1c0-1.9,0.7-3.3,2.1-4.2c1.4-0.9,3.5-1.5,6.3-1.6l3.1-0.1v-1c0-1.2-0.3-2-0.8-2.6c-0.5-0.6-1.4-0.9-2.5-0.9
			c-0.9,0-1.8,0.1-2.7,0.4c-0.8,0.3-1.7,0.6-2.5,1L73,17.2c1-0.5,2.1-0.9,3.2-1.2c1.2-0.3,2.3-0.4,3.3-0.4c2.3,0,4,0.5,5.2,1.5
			c1.2,1,1.8,2.6,1.8,4.7v12.2H83.7z M78,31.4c1.4,0,2.5-0.4,3.4-1.2c0.8-0.8,1.3-1.9,1.3-3.3v-1.6l-2.3,0.1
			c-1.8,0.1-3.1,0.4-3.9,0.9c-0.8,0.5-1.2,1.4-1.2,2.5c0,0.8,0.2,1.4,0.7,1.9C76.3,31.2,77.1,31.4,78,31.4z"/>
		<path class="black" style="fill:#000000" d="M104.2,28.9c0,1.8-0.6,3.1-1.9,4.1c-1.3,0.9-3.1,1.4-5.5,1.4c-2.4,0-4.3-0.4-5.8-1.1V30
			c2.1,1,4.1,1.5,5.9,1.5c2.4,0,3.5-0.7,3.5-2.1c0-0.5-0.1-0.8-0.4-1.1c-0.3-0.3-0.7-0.6-1.3-0.9c-0.6-0.3-1.4-0.7-2.5-1.1
			c-2.1-0.8-3.5-1.6-4.2-2.4c-0.7-0.8-1.1-1.9-1.1-3.1c0-1.5,0.6-2.7,1.9-3.6c1.2-0.9,2.9-1.3,5.1-1.3c2.1,0,4.1,0.4,6,1.3
			l-1.2,2.9c-1.9-0.8-3.6-1.2-4.9-1.2c-2,0-3,0.6-3,1.7c0,0.6,0.3,1,0.8,1.4c0.5,0.4,1.7,0.9,3.5,1.6c1.5,0.6,2.6,1.1,3.3,1.6
			c0.7,0.5,1.2,1,1.5,1.7C104,27.3,104.2,28,104.2,28.9z"/>
		<path class="black" style="fill:#000000" d="M132.6,34.1l-0.8-2.5h-0.1c-0.9,1.1-1.7,1.8-2.6,2.2c-0.9,0.4-2,0.6-3.4,0.6c-1.8,0-3.2-0.5-4.2-1.4
			c-1-1-1.5-2.3-1.5-4.1c0-1.9,0.7-3.3,2.1-4.2c1.4-0.9,3.5-1.5,6.3-1.6l3.1-0.1v-1c0-1.2-0.3-2-0.8-2.6c-0.5-0.6-1.4-0.9-2.5-0.9
			c-0.9,0-1.8,0.1-2.7,0.4c-0.8,0.3-1.7,0.6-2.5,1l-1.2-2.7c1-0.5,2.1-0.9,3.2-1.2c1.2-0.3,2.3-0.4,3.3-0.4c2.3,0,4,0.5,5.2,1.5
			c1.2,1,1.8,2.6,1.8,4.7v12.2H132.6z M126.9,31.4c1.4,0,2.5-0.4,3.4-1.2c0.8-0.8,1.3-1.9,1.3-3.3v-1.6l-2.3,0.1
			c-1.8,0.1-3.1,0.4-3.9,0.9c-0.8,0.5-1.2,1.4-1.2,2.5c0,0.8,0.2,1.4,0.7,1.9C125.2,31.2,125.9,31.4,126.9,31.4z"/>
		<path class="black" style="fill:#000000" d="M164.5,34.1l-0.8-2.5h-0.1c-0.9,1.1-1.7,1.8-2.6,2.2c-0.9,0.4-2,0.6-3.4,0.6c-1.8,0-3.2-0.5-4.2-1.4
			c-1-1-1.5-2.3-1.5-4.1c0-1.9,0.7-3.3,2.1-4.2c1.4-0.9,3.5-1.5,6.3-1.6l3.1-0.1v-1c0-1.2-0.3-2-0.8-2.6c-0.5-0.6-1.4-0.9-2.5-0.9
			c-0.9,0-1.8,0.1-2.7,0.4c-0.8,0.3-1.7,0.6-2.5,1l-1.2-2.7c1-0.5,2.1-0.9,3.2-1.2c1.2-0.3,2.3-0.4,3.3-0.4c2.3,0,4,0.5,5.2,1.5
			c1.2,1,1.8,2.6,1.8,4.7v12.2H164.5z M158.8,31.4c1.4,0,2.5-0.4,3.4-1.2c0.8-0.8,1.3-1.9,1.3-3.3v-1.6l-2.3,0.1
			c-1.8,0.1-3.1,0.4-3.9,0.9c-0.8,0.5-1.2,1.4-1.2,2.5c0,0.8,0.2,1.4,0.7,1.9C157.1,31.2,157.8,31.4,158.8,31.4z"/>
		<g>
			<path class="black" style="fill:#000000" d="M67.3,34.1h-3.8V16h3.8V34.1z"/>
			<path class="black" style="fill:#000000" d="M67.3,10.5c0.3,1.5-0.9,2.7-2.4,2.4c-0.7-0.2-1.3-0.8-1.5-1.5c-0.3-1.5,0.9-2.7,2.4-2.4
				C66.5,9.2,67.1,9.8,67.3,10.5z"/>
		</g>
		<g>
			<path class="black" style="fill:#000000" d="M143.9,34.1H140v-8.7c0-3.3,1-6,3-7.7c2-1.7,4.7-2.3,8.2-1.9l-0.5,3.1c-2.3-0.3-4-0.1-5.1,1
				c-1.5,1.5-1.6,3.9-1.6,5.7V34.1z"/>
		</g>
		<path class="black" style="fill:#000000" d="M114.3,31.3c-0.8,0-1.4-0.2-1.8-0.7c-0.5-0.4-0.7-1.1-0.7-2v-9.7h5.1V16h-5.1v-4c0,0-3.3-0.4-3.9,2.4
			c-0.1,0.5,0,1.6,0,1.6v12.6c0,3.8,1.8,5.7,5.5,5.7c0.7,0,1.4-0.1,2.1-0.2c0.7-0.1,1.2-0.3,1.6-0.5v-2.9
			C116.2,31.1,115.3,31.3,114.3,31.3z"/>
	</g>
</g>
</svg>
